<svg height="160" viewBox="0 0 370 160" width="370" xmlns="http://www.w3.org/2000/svg"><g fill="none" fill-rule="nonzero"><g><g transform="translate(13 50)"><path d="m82.6 53.2 17.5 1.6c0 .4-.1.8-.1 1.3l-.2 1.3c0 .4-.1.8-.2 1.2l-.2 1.2-17.2-3.4.2-.8c.1-.3.1-.5.1-.8l.1-.8c-.1-.3-.1-.6 0-.8z" fill="#f3820c"/><path d="m81.3 59.5 16.8 5c-.2.8-.5 1.6-.8 2.4s-.6 1.6-.9 2.4l-16.2-6.7c.2-.5.4-1 .6-1.5s.4-1.1.5-1.6z" fill="#f3820c"/><path d="m78.9 65.3 15.5 8.2c-.2.4-.4.8-.6 1.1l-.6 1.1c-.4.7-.9 1.4-1.3 2.1l-14.6-9.7c.3-.5.6-.9.9-1.4l.4-.7c.1-.2.2-.4.3-.7z" fill="#f3820c"/><path d="m75.4 70.7 13.6 11.2c-.5.7-1.1 1.3-1.6 1.9-.6.6-1.2 1.2-1.7 1.8l-12.5-12.4 1.1-1.2c.3-.4.7-.9 1.1-1.3z" fill="#f3820c"/><path d="m65.5 78.8 8.3 15.5c-.8.4-1.5.8-2.2 1.1-.8.3-1.5.7-2.3 1l-6.7-16.2c.5-.2 1-.4 1.5-.7.5-.2.9-.4 1.4-.7z" fill="#f3820c"/><path d="m71.6 73.7.3-.2-9.2-12c-.7.6-4.6 3.3-4.6 3.3l8 12.9z" fill="#000"/><g fill="#f3820c"><path d="m59.8 81.2 5.1 16.8c-.8.2-1.6.5-2.4.7s-1.6.4-2.4.6l-3.5-17.2 1.6-.3z"/><path d="m53.4 82.5 1.7 17.5c-.8.1-1.7.1-2.5.2l-2.5.1v-17.6h1.6z"/><path d="m47.1 82.6-1.6 17.5c-.4 0-.8-.1-1.3-.1l-1.2-.2c-.4 0-.8-.1-1.2-.2l-1.2-.2 3.4-17.2.8.2c.3.1.5.1.8.1l.8.1c.2-.1.4-.1.7 0z"/><path d="m40.7 81.3-5 16.8c-.8-.2-1.6-.5-2.4-.8s-1.6-.6-2.4-.9l6.7-16.2c.5.2 1 .4 1.5.6.6.2 1.1.4 1.6.5z"/><path d="m34.9 78.9-8.2 15.5c-.4-.2-.8-.4-1.1-.6l-1.1-.6c-.7-.4-1.4-.9-2.1-1.3l9.7-14.6c.5.3.9.6 1.4.9l.7.4c.3.1.5.2.7.3z"/><path d="m29.5 75.4-11.1 13.6c-.7-.5-1.3-1.1-1.9-1.6-.6-.6-1.2-1.2-1.8-1.7l12.4-12.4 1.2 1.1c.4.2.8.6 1.2 1z"/><path d="m25.1 70.9-13.6 11.3c-.5-.7-1-1.3-1.5-2s-1-1.3-1.4-2l14.6-9.8.9 1.3z"/><path d="m21.4 65.5-15.4 8.3c-.4-.8-.8-1.5-1.1-2.2-.3-.8-.7-1.5-1-2.3l16.2-6.7c.2.5.4 1 .7 1.5.1.5.4.9.6 1.4z"/><path d="m19 59.8-16.8 5.1c-.2-.8-.5-1.6-.7-2.4s-.4-1.6-.6-2.4l17.2-3.5.3 1.6z"/><path d="m17.7 53.4-17.4 1.7c-.1-.8-.1-1.7-.2-2.5l-.1-2.5h17.6v1.6z"/><path d="m17.7 47.1-17.5-1.6c0-.4.1-.8.1-1.3l.2-1.2c0-.4.1-.8.2-1.2l.2-1.2 17.3 3.4-.2.7c-.1.3-.1.5-.1.8l-.1.8c0 .3-.1.5-.1.8z"/><path d="m19 40.7-16.8-5c.2-.8.5-1.6.8-2.4s.6-1.6.9-2.4l16.2 6.7c-.2.5-.4 1-.6 1.5-.2.6-.4 1.1-.5 1.6z"/><path d="m21.3 34.9-15.5-8.2c.2-.4.4-.7.6-1.1l.6-1.1c.4-.7.9-1.4 1.3-2.1l14.7 9.7c-.3.5-.6.9-.9 1.4l-.4.7c-.1.3-.3.5-.4.7z"/><path d="m24.9 29.5-13.6-11.1c.5-.7 1.1-1.3 1.6-1.9.6-.6 1.2-1.2 1.7-1.8l12.4 12.4-1 1.2c-.3.4-.7.8-1.1 1.2z"/><path d="m29.3 25.1-11.2-13.6c.7-.5 1.3-1 2-1.5s1.3-1 2-1.4l9.9 14.5-1.3.9z"/><path d="m34.7 21.4-8.3-15.4c.8-.4 1.5-.8 2.2-1.1s1.5-.7 2.3-1l6.7 16.2c-.5.2-1 .4-1.5.7-.4.1-.9.4-1.4.6z"/><path d="m40.5 19-5.2-16.8c.8-.2 1.6-.5 2.4-.7s1.6-.4 2.4-.6l3.5 17.2-1.6.3z"/><path d="m46.9 17.7-1.7-17.4c.8-.1 1.7-.1 2.5-.2l2.5-.1v17.6h-1.6z"/><path d="m53.2 17.7 1.6-17.5c.4 0 .8.1 1.3.1l1.3.2c.4 0 .8.1 1.2.2l1.2.2-3.4 17.2-.8-.1c-.3-.1-.5-.1-.8-.1l-.8-.1c-.3 0-.6-.1-.8-.1z"/><path d="m59.5 19 5-16.8c.8.2 1.6.5 2.4.8s1.6.6 2.4.9l-6.7 16.2c-.5-.2-1-.4-1.5-.6s-1.1-.4-1.6-.5z"/><path d="m65.3 21.3 8.2-15.5c.4.2.8.4 1.1.6l1.1.6c.7.4 1.4.9 2.1 1.3l-9.7 14.7c-.5-.3-.9-.6-1.4-.9l-.7-.4c-.2-.1-.4-.3-.7-.4z"/><path d="m70.7 24.9 11.1-13.6c.7.5 1.3 1.1 1.9 1.6.6.6 1.2 1.2 1.8 1.7l-12.3 12.5-1.2-1.1c-.4-.3-.8-.7-1.3-1.1z"/><path d="m75.2 29.4 13.5-11.2c.5.7 1 1.3 1.5 2s1 1.3 1.4 2l-14.5 9.8-.9-1.3z"/><path d="m78.8 34.7 15.5-8.3c.4.8.8 1.5 1.1 2.2.3.8.7 1.5 1 2.3l-16.2 6.7c-.2-.5-.4-1-.7-1.5-.2-.4-.4-.9-.7-1.4z"/><path d="m81.2 40.5 16.8-5.2c.2.8.5 1.6.7 2.4s.4 1.6.6 2.4l-17.2 3.5-.3-1.6z"/><path d="m82.5 46.9 17.5-1.7c.1.8.1 1.7.2 2.5l.1 2.5h-17.6v-1.6z"/></g></g><g fill="#000" transform="translate(141.1 70.4)"><path d="m15 42.3c-1.8-1-3.4-1.5-5.4-1.5-2.3 0-4.5.8-6.1 2.2-1.8 1.6-3 4.3-3 6.9 0 2.9.9 5.3 2.7 7 1.6 1.6 3.9 2.5 6.3 2.5 2.2 0 3.9-.6 5.7-1.8l-.9-1.8c-1.4 1-2.7 1.4-4.7 1.4-1.6 0-3.3-.8-4.5-1.9-1.3-1.4-2-3.2-2-5.3 0-4.2 2.6-6.9 6.5-6.9 1.5 0 2.8.4 4.4 1.3z"/><path d="m29.8 40.9c-5 0-9 4.1-9 9.2 0 5.4 3.8 9.4 9 9.4 5.4 0 9.2-3.8 9.2-9.1 0-2.4-.7-4.6-2.1-6.2-1.7-2.3-4.1-3.3-7.1-3.3zm-.2 2c3.9 0 6.9 3.2 6.9 7.5 0 4.2-2.5 6.8-6.5 6.8-1.5 0-3.2-.7-4.3-1.9-1.3-1.3-2.2-3.5-2.2-5.4 0-2 .4-3.5 1.3-4.7 1.1-1.4 2.9-2.3 4.8-2.3z"/><path d="m47.4 41.5v17.5h2.2v-13.6l11.9 13.8 1.2-.4v-17.5h-2.2v13.3l-11.8-13.6z"/><path d="m80.9 42.6c-1.3-1.2-2.8-1.7-4.7-1.7-2.8 0-5.1 2.2-5.1 4.9 0 2.3 1.2 3.8 3.7 4.9l.5.2.5.2.5.2c.5.2 1 .5 1.4.7.8.5 1.3 1.4 1.3 2.2 0 1.9-1.3 3-3.3 3-1.5 0-3.2-.8-4.7-2.3l-.5 2.5c1.8 1.3 3.3 1.8 5.3 1.8 3.2 0 5.7-2.2 5.7-5.1 0-2.5-.9-3.7-3.8-5-2.3-1-2.5-1.2-3.1-1.6-.9-.6-1.3-1.4-1.2-2.3.1-1.4 1.2-2.4 2.7-2.4 1.3 0 2.3.4 3.8 1.6z"/><path d="m89.8 41.3v10.6c0 2.9.4 4.3 1.5 5.5 1.2 1.4 3.1 2 5.7 2 2 0 3.9-.6 5.1-1.5 1.6-1.2 2.2-3 2.2-6v-10.6h-2.3v10.7c0 1.7-.2 2.8-.7 3.6-.8 1.2-2.1 1.7-4 1.7-1.5 0-2.6-.3-3.5-.9-1.2-.9-1.6-2-1.6-4.4v-10.7z"/><path d="m115.7 41.3h-2.4v17.7h9.9l.4-2h-7.9z"/><path d="m134.5 43.2h6.1v-1.9h-14.6v1.9h6.1v15.8h2.3v-15.8z"/><path d="m151 41.3h-2.3v17.7h2.3z"/><path d="m160 41.5v17.5h2.2v-13.6l11.9 13.8 1.2-.4v-17.5h-2.2v13.3l-11.8-13.6z"/><path d="m199.4 43.2c-1.8-1.6-3.8-2.3-6.7-2.3-5.1 0-9 4-9 9.3 0 2.2.7 4.4 2 6 1.6 2.1 4.3 3.2 7.5 3.2 2.6 0 4.3-.5 6.3-1.9v-7.5h-6.2l-.3 1.9h4.1v4.6c-1.2.7-2.3 1-3.9.9-1.7-.1-3.3-.6-4.5-1.7-1.5-1.3-2.4-3.5-2.4-5.6s.4-3.6 1.4-4.8c1.2-1.5 3.1-2.4 5.2-2.4 1.9 0 3.6.7 5.2 2z"/><path d="m51.8.7v16.1c0 2.3-.3 3.8-1 4.8-1.1 1.6-2.9 2.4-5.7 2.4-1.7 0-3.3-.5-4.3-1.3-1.4-1.1-2-2.7-2-5.9v-16.1h-5v16.1c0 3.3.5 5.6 1.7 7.2 1.9 2.7 5.4 4.1 10.1 4.1 3 0 6.1-.9 7.9-2.4 2.3-1.9 3.3-4.5 3.3-8.9v-16.1z"/><path d="m81.3 27.5h5.3l-11.3-27.3h-3.9l-11.5 27.3h4.8l3-7.4h10.6zm-4.3-10.8h-7.9l4-10z"/><path d="m91.4 1.1v26.4h4.6v-18.2l16.5 18.7 2.9-.8v-26.5h-4.6v18.1l-16.4-18.6z"/><path d="m134.5 4.8h8.6v-4.1h-22.2v4.1h8.6v22.7h5z"/><path d="m158.3.1c-8 .4-13.7 6.2-13.7 14 0 8.1 5.8 14.1 13.8 14.1 8.3 0 14.1-5.7 14.1-14s-6.2-14.5-14.2-14.1zm-.2 4.3c5.2 0 9 4.3 9 10.1s-3.5 9.5-8.6 9.2c-2.2-.1-4.2-1-5.6-2.5-1.7-1.8-2.9-4.7-2.9-7.3 0-2.7.5-4.7 1.7-6.3 1.6-2 3.8-3.2 6.4-3.2z"/><path d="m178.5 27.5h5v-10.2h3.8l6.6 10.3h5.8l-7.8-11.8c1.1-.4 1.5-.7 2.1-1.2 1.8-1.4 2.8-3.6 2.8-5.9 0-5.4-3.9-8.3-11-8.3-2.5 0-4.2.1-7.3.4zm5-23.1h2 .7c3.6 0 5.8 1.8 5.8 4.7 0 2.3-1.8 4.6-3.6 4.6h-4.8v-9.3z"/><path d="m27.9 14.1c0-3.5-1.2-7-3.3-9.5-2.7-3.1-6.2-4.6-10.9-4.6-2.7 0-5.7 1-8 2.6-3.6 2.6-5.7 6.7-5.7 11.4 0 8.1 5.8 14.1 13.8 14.1 1.5 0 2.6-.1 3.8-.5l1.5-.6 2.4 3.8 3.8-2.7-2.3-3.1c3.2-2.6 4.9-6.3 4.9-10.9zm-14 9.5c-2.2-.1-4.2-1-5.6-2.5-1.7-1.8-2.9-4.7-2.9-7.3 0-2.7.5-4.7 1.7-6.2 1.5-2 3.8-3.2 6.3-3.2 5.2 0 9 4.3 9 10.1 0 2.8-.8 5.2-2.3 6.8l-2.1-2.8-3 2 1.8 2.8c-.8.3-1.8.4-2.9.3z"/></g></g><path d="m133.65918 41.3027344c2.502604 0 4.465332-.5600586 5.888183-1.6801758 1.422852-1.1201172 2.134278-2.6640625 2.134278-4.6318359 0-.9990235-.176595-1.866862-.529786-2.6035157-.35319-.7366536-.908203-1.3976237-1.665039-1.9829101-.756836-.5852865-1.947591-1.2159831-3.572265-1.8920899-1.443034-.5953776-2.442058-1.074707-2.997071-1.4379882-.555013-.3632813-.953613-.7492676-1.1958-1.157959-.242188-.4086914-.363282-.9006348-.363282-1.4758301 0-.8375651.302735-1.5111491.908204-2.020752.605468-.5096028 1.493489-.7644043 2.664062-.7644043 1.543945 0 3.299805.413737 5.267578 1.241211l1.150391-2.9516602c-2.098959-.9283854-4.208008-1.3925781-6.327149-1.3925781-2.209961 0-3.970866.5297851-5.282714 1.5893555-1.311849 1.0595703-1.967774 2.5126953-1.967774 4.359375 0 1.4733073.413737 2.7347005 1.241211 3.7841796.827474 1.0494792 2.250326 1.9829102 4.268555 2.800293 1.957682.7871094 3.249349 1.4682617 3.875 2.043457.625651.5751954.938476 1.27653.938476 2.104004 0 .9182942-.340576 1.6499023-1.021728 2.1948242-.681153.5449218-1.7382.8173828-3.171143.8173828-.978841 0-2.035888-.1362305-3.171142-.4086914-1.135254-.272461-2.207439-.6458334-3.216553-1.1201172v3.4208984c1.594401.7770183 3.642904 1.1655274 6.145508 1.1655274zm14.378977-.3027344v-8.2797852h2.300782c2.795247 0 4.949707-.6155599 6.463379-1.8466796 1.513671-1.2311198 2.270507-3.0021159 2.270507-5.3129883 0-2.1998698-.68872-3.8649089-2.066162-4.9951172-1.377441-1.1302083-3.448649-1.6953125-6.213623-1.6953125h-6.372558v22.1298828zm1.922364-11.3222656h-1.922364v-7.7802735h2.512696c1.644857 0 2.855794.3128256 3.632812.9384766s1.165528 1.5742187 1.165528 2.8457031c0 1.3723959-.43392 2.3815104-1.301758 3.0273438-.867839.6458333-2.230143.96875-4.086914.96875zm21.281321 11.625c3.299805 0 5.850342-.9990235 7.651612-2.9970703 1.801269-1.9980469 2.701904-4.7983399 2.701904-8.4008789 0-3.6126303-.898112-6.4129232-2.694336-8.400879-1.796224-1.9879557-4.339193-2.9819335-7.628906-2.9819335-3.34017 0-5.910889.9788411-7.712159 2.9365234-1.801269 1.9576823-2.701904 4.7630208-2.701904 8.4160156s.895589 6.4709473 2.686768 8.4538574c1.791178 1.9829102 4.356852 2.9743653 7.697021 2.9743653zm0-3.0878906c-2.159505 0-3.789225-.7038575-4.88916-2.1115723-1.099935-1.4077149-1.649902-3.473877-1.649902-6.1984863 0-2.7145183.55249-4.773112 1.65747-6.1757813 1.104981-1.4026693 2.742269-2.1040039 4.911866-2.1040039 2.149414 0 3.76652.7013346 4.851318 2.1040039s1.627197 3.461263 1.627197 6.1757813c0 2.7548828-.547444 4.8286132-1.642334 6.2211914-1.094889 1.3925781-2.717041 2.0888672-4.866455 2.0888672zm16.846263 2.7851562v-11.5039062c0-1.5540365-.070638-3.2695313-.211914-5.1464844l-.075684-.9838867h.121094l10.883301 17.6342773h4.435059v-22.1298828h-3.314942l.000751 11.8255928c.005004.7960329.035027 1.8568542.090069 3.1824638.060547 1.4581706.100912 2.3033041.121094 2.5354004h-.09082l-10.853027-17.543457h-4.389649v22.1298828zm24.187572.3027344c2.502604 0 4.465332-.5600586 5.888183-1.6801758 1.422852-1.1201172 2.134277-2.6640625 2.134277-4.6318359 0-.9990235-.176595-1.866862-.529785-2.6035157-.35319-.7366536-.908203-1.3976237-1.665039-1.9829101-.756836-.5852865-1.947591-1.2159831-3.572265-1.8920899-1.443034-.5953776-2.442058-1.074707-2.997071-1.4379882-.555013-.3632813-.953613-.7492676-1.1958-1.157959-.242188-.4086914-.363282-.9006348-.363282-1.4758301 0-.8375651.302735-1.5111491.908203-2.020752.605469-.5096028 1.49349-.7644043 2.664063-.7644043 1.543945 0 3.299805.413737 5.267578 1.241211l1.150391-2.9516602c-2.098959-.9283854-4.208008-1.3925781-6.327149-1.3925781-2.209961 0-3.970866.5297851-5.282715 1.5893555-1.311849 1.0595703-1.967773 2.5126953-1.967773 4.359375 0 1.4733073.413737 2.7347005 1.241211 3.7841796.827474 1.0494792 2.250325 1.9829102 4.268555 2.800293 1.957682.7871094 3.249349 1.4682617 3.875 2.043457.625651.5751954.938476 1.27653.938476 2.104004 0 .9182942-.340576 1.6499023-1.021728 2.1948242-.681153.5449218-1.7382.8173828-3.171143.8173828-.978841 0-2.035889-.1362305-3.171143-.4086914-1.135253-.272461-2.207438-.6458334-3.216552-1.1201172v3.4208984c1.594401.7770183 3.642903 1.1655274 6.145508 1.1655274zm20.055247 0c3.299804 0 5.850342-.9990235 7.651611-2.9970703 1.80127-1.9980469 2.701904-4.7983399 2.701904-8.4008789 0-3.6126303-.898112-6.4129232-2.694336-8.400879-1.796223-1.9879557-4.339192-2.9819335-7.628906-2.9819335-3.340169 0-5.910888.9788411-7.712158 2.9365234-1.801269 1.9576823-2.701904 4.7630208-2.701904 8.4160156s.895589 6.4709473 2.686767 8.4538574c1.791179 1.9829102 4.356853 2.9743653 7.697022 2.9743653zm0-3.0878906c-2.159505 0-3.789225-.7038575-4.88916-2.1115723-1.099935-1.4077149-1.649903-3.473877-1.649903-6.1984863 0-2.7145183.552491-4.773112 1.657471-6.1757813s2.742269-2.1040039 4.911865-2.1040039c2.149414 0 3.76652.7013346 4.851319 2.1040039 1.084798 1.4026693 1.627197 3.461263 1.627197 6.1757813 0 2.7548828-.547445 4.8286132-1.642334 6.2211914-1.094889 1.3925781-2.717041 2.0888672-4.866455 2.0888672zm17.179271 2.7851562v-8.8398438h3.572265l5.297852 8.8398438h4.117187l-6.251465-9.793457c2.865886-1.1705729 4.298828-3.1333008 4.298828-5.8881836 0-2.1595052-.686197-3.7740886-2.058593-4.84375-1.372396-1.0696615-3.486491-1.6044922-6.342285-1.6044922h-6.251465v22.1298828zm2.512695-11.8369141h-2.512695v-7.2353515h2.391601c1.644857 0 2.875977.2724609 3.693359.8173828.817383.5449219 1.226075 1.4430338 1.226075 2.6943359 0 1.2311198-.378418 2.1595052-1.135254 2.7851563-.756836.625651-1.977865.9384765-3.663086.9384765zm24.65681 11.8369141v-3.0727539h-8.900391v-6.9477539h8.340332v-3.0273438h-8.340332v-6.024414h8.900391v-3.0576172h-12.518067v22.1298828zm9.42927 0c3.814453 0 6.73584-.9662272 8.76416-2.8986816 2.028321-1.9324545 3.042481-4.7251791 3.042481-8.3781739 0-3.4410807-.978841-6.1101888-2.936524-8.0073242-1.957682-1.8971354-4.697428-2.8457031-8.219238-2.8457031h-6.841797v22.1298828zm0-3.0424805h-2.573242v-16.0600586h3.133301c4.954752 0 7.432129 2.6489258 7.432129 7.9467774 0 5.4088541-2.664063 8.1132812-7.992188 8.1132812zm29.514792 3.0424805c2.47233 0 4.402262-.5625814 5.789795-1.6877441 1.387532-1.1251628 2.081298-2.681722 2.081298-4.6696778 0-1.4733073-.365804-2.6413574-1.097412-3.5041504-.731608-.8627929-1.87443-1.440511-3.428466-1.7331543v-.1513672c1.251302-.2220052 2.20996-.7618815 2.875976-1.6196289s.999024-1.9324544.999024-3.2241211c0-1.9173177-.67863-3.3199869-2.035889-4.2080078-1.357259-.8880208-3.559652-1.3320312-6.607178-1.3320312h-6.569336v22.1298828zm-.893067-12.9873047h-3.481445v-6.1152344h3.133301c1.634765 0 2.828043.2320964 3.579834.6962891.75179.4641927 1.127685 1.2159831 1.127685 2.2553711 0 1.1503906-.348144 1.9652506-1.044433 2.4445801-.696289.4793294-1.80127.7189941-3.314942.7189941zm.363282 9.9448242h-3.844727v-7.0083007h3.663086c1.604492 0 2.800293.2775065 3.587402.8325195.78711.555013 1.180664 1.4077148 1.180664 2.5581055 0 1.251302-.385986 2.1670735-1.157959 2.7473144-.771972.5802409-1.914795.8703613-3.428466.8703613zm19.510325 3.0424805v-8.5825195l7.371582-13.5473633h-3.935547l-5.237305 10.0961914-5.237304-10.0961914h-3.935547l7.341308 13.668457v8.4614258z" fill="#f3820c" fill-opacity=".624126"/></g></svg>